<svg width="100%" height="100%" viewBox="0 0 100 100" fill="none" xmlns="http://www.w3.org/2000/svg">
<path d="M58.1778 9.11111C58.1778 9.11111 56.6444 4 50 4C43.3556 4 41.8222 9.11111 41.8222 9.11111V41.8222H9.11111C9.11111 41.8222 4 43.3556 4 50C4 56.6444 9.11111 58.1778 9.11111 58.1778H41.8222V90.8889C41.8222 90.8889 42.8444 96 50 96C57.1556 96 58.1778 90.8889 58.1778 90.8889V58.1778H90.8889C90.8889 58.1778 96 57.1556 96 50C96 42.8444 90.8889 41.8222 90.8889 41.8222H58.1778V9.11111Z" fill="#3498DB"/>
</svg>
