<svg width="220" height="77" viewBox="0 0 220 77" fill="none" xmlns="http://www.w3.org/2000/svg">
<path d="M166.243 17.8308C171.399 17.8308 176.165 18.3779 181.947 19.5517L177.827 28.2461C174.624 27.6198 177.571 28.1622 175.15 27.9276V29.1802L175.306 34.2665L175.383 40.8412C175.461 42.4843 175.461 44.1282 175.54 45.7717V49.0591C175.54 59.3905 174.68 64.2426 172.102 68.2338C168.352 74.1043 161.868 77 152.649 77C147.961 77 143.899 76.2958 139.68 74.6519V63.5383H139.681C143.9 65.7294 148.118 66.7465 152.571 66.7465C160.462 66.7465 163.821 63.5383 163.821 55.8676V55.633C161.478 56.8064 159.133 57.2765 156.009 57.2765C145.462 57.2765 138.742 50.3109 138.742 39.2757C138.742 25.5781 148.665 17.8304 166.242 17.8304L166.243 17.8308ZM57.1098 18.6129V46.5534C57.1098 56.1806 56.4064 60.7976 54.2975 64.7897C52.3437 68.625 49.7651 71.0507 44.4533 73.7122L33.281 68.39C38.5937 65.8856 41.1714 63.695 42.8119 60.328C44.5311 56.8844 45.0785 52.8927 45.0785 42.4055V18.6134H57.1098V18.6129ZM200.625 17.5953C212.656 17.5953 220 25.1877 220 37.4751C220 50.0767 212.344 57.9812 200.156 57.9812C188.124 57.9812 180.702 50.3892 180.702 38.1802C180.702 25.4998 188.359 17.5958 200.625 17.5958V17.5953ZM80.315 17.7524C86.4871 17.7524 90.5493 19.3955 92.3463 22.6045C93.3616 24.4047 93.674 26.7524 93.674 31.7621V56.2585C88.2827 57.041 81.4864 57.5894 76.4865 57.5894C66.4086 57.5894 61.8763 54.0662 61.8763 46.2405C61.8763 37.7872 67.8919 33.8743 82.6586 32.6217V29.9606C82.6586 27.7696 81.565 26.9874 78.5177 26.9874C74.0648 26.9874 69.0645 28.2392 64.3766 30.6661V21.3523C69.6902 18.8488 74.7678 17.7529 80.315 17.7529V17.7524ZM37.9693 0V55.7901C31.7977 56.964 27.2658 57.4336 22.3446 57.4336C7.65617 57.4336 0 50.7809 0 38.0235C0 25.7357 8.12539 17.7533 20.7036 17.7533C22.6566 17.7533 24.1411 17.9091 25.9381 18.3788V0H37.9693V0ZM118.44 17.7529C124.612 17.7529 129.066 19.1613 131.723 21.9007C134.223 24.4831 135.004 27.3004 135.004 33.3276V56.9636H122.972V33.7973C122.972 29.1798 121.409 27.4571 117.113 27.4571C115.472 27.4571 113.988 27.6138 111.565 28.318V56.9636H99.5341V20.4914C106.643 18.6134 112.503 17.7529 118.44 17.7529V17.7529ZM83.2055 40.5279C75.2361 41.3104 72.658 42.5631 72.658 45.6934C72.658 48.0411 74.143 49.137 77.4241 49.137C79.2211 49.137 80.8616 48.9807 83.2055 48.5895V40.5279V40.5279ZM200.469 27.3008C195.702 27.3008 192.967 31.1362 192.967 37.788C192.968 44.4412 195.702 48.2761 200.389 48.2761C205 48.2761 207.734 44.4407 207.734 37.788C207.734 31.2141 205.077 27.3008 200.469 27.3008V27.3008ZM21.8758 27.4571C15.782 27.4571 12.2659 31.2141 12.2659 37.788C12.2659 44.2061 15.626 47.7281 21.7976 47.7281C23.1254 47.7281 24.2193 47.6498 25.9381 47.4156V28.083C24.5317 27.6138 23.36 27.4571 21.8758 27.4571V27.4571ZM155.384 29.2564C152.494 30.9007 151.009 33.8752 151.009 38.101C151.009 44.1282 153.979 47.5714 159.291 47.5714C160.931 47.5714 162.26 47.2581 163.822 46.7889V42.6414C163.822 41.2325 163.744 39.6665 163.744 38.0235L163.667 32.4667L163.588 28.4751V27.5354H162.338C159.995 27.4571 157.26 28.083 155.384 29.2568L155.384 29.2564ZM57.1098 0.0645684V12.4307H45.0785V0.064138H57.1098V0.0645684Z" fill="#092E20"/>
</svg>
