<svg width="100%" height="100%" viewBox="0 0 100 100" fill="none" xmlns="http://www.w3.org/2000/svg">
<path fill-rule="evenodd" clip-rule="evenodd" d="M79.6313 68.4261L50.9426 85.1989C50.3593 85.5399 49.6407 85.54 49.0574 85.1989L20.3687 68.4261C19.7855 68.0851 19.4261 67.4549 19.4261 66.7728V33.2272C19.4261 32.5451 19.7855 31.9149 20.3687 31.5739L49.0574 14.8011C49.6407 14.4601 50.3593 14.4601 50.9426 14.8011L79.6313 31.5739C80.2145 31.9149 80.5739 32.5451 80.5739 33.2272V66.7728C80.5739 67.4549 80.2146 68.0851 79.6313 68.4261ZM55.6557 93.4654C52.1559 95.5115 47.8441 95.5115 44.3443 93.4654L15.6557 76.6926C12.1559 74.6465 10 70.8651 10 66.7728L10 33.2272C10 29.1349 12.1559 25.3535 15.6557 23.3074L44.3443 6.5346C47.8441 4.48847 52.1559 4.48847 55.6557 6.5346L84.3443 23.3074C87.8441 25.3535 90 29.1349 90 33.2272V66.7728C90 70.8651 87.8441 74.6465 84.3443 76.6926L55.6557 93.4654Z" fill="#E74C3C"/>
</svg>
