<svg width="273" height="56" viewBox="0 0 273 56" fill="none" xmlns="http://www.w3.org/2000/svg">
<path d="M117.44 13.611V12.2893C117.44 11.9589 117.275 11.6285 116.614 11.6285C115.953 11.4633 114.466 11.4633 113.145 11.4633C109.51 11.4633 107.197 12.7849 107.197 16.9151V40.2094C107.197 40.705 107.528 41.0355 108.023 41.0355H109.841C110.336 41.0355 110.667 40.705 110.667 40.2094V22.2018H116.779C117.275 22.2018 117.44 21.8714 117.44 21.5409V20.2193C117.44 19.7236 117.11 19.5584 116.779 19.5584H110.501V16.9151C110.501 14.6022 110.997 14.2718 113.145 14.2718H116.614C117.11 14.1066 117.44 13.9414 117.44 13.611V13.611ZM129.831 21.5409V19.7236C129.831 19.228 129.5 19.0628 129.005 19.0628C125.701 19.0628 123.057 19.228 120.91 20.2193C120.414 20.3845 120.249 20.7149 120.249 21.0453V39.879C120.249 40.3746 120.579 40.705 120.91 40.705H122.892C123.388 40.705 123.553 40.3746 123.553 39.879V22.5322C125.04 22.2018 126.361 22.2018 129.005 22.2018C129.831 22.2018 129.831 22.0366 129.831 21.5409ZM146.847 39.3834V21.0453C146.847 20.5497 146.682 20.3845 146.021 20.2193C143.873 19.7236 141.23 19.3932 138.752 19.3932C132.97 19.3932 130.161 23.193 130.161 28.9753V31.6186C130.161 37.4009 132.804 41.2007 138.752 41.2007C141.065 41.2007 143.873 40.8703 146.021 40.3746C146.682 40.0442 146.847 39.879 146.847 39.3834V39.3834ZM143.378 37.8965C142.221 38.0617 140.404 38.2269 138.752 38.2269C134.952 38.2269 133.631 35.5836 133.631 31.4534V28.8101C133.631 24.6799 134.787 22.0366 138.752 22.0366C140.404 22.0366 142.221 22.2018 143.378 22.367V37.8965ZM175.098 40.0442V26.0015C175.098 22.0366 172.785 19.228 168.159 19.228H167.333C165.02 19.228 163.368 19.5584 162.211 20.5497C161.055 19.3932 159.403 19.228 157.09 19.228H156.264C151.638 19.228 149.325 22.0366 149.325 26.0015V40.0442C149.325 40.5398 149.656 40.8703 149.986 40.8703H151.969C152.464 40.8703 152.629 40.5398 152.629 40.0442V26.0015C152.629 22.6974 154.116 22.2018 156.099 22.2018H156.925C159.403 22.2018 160.229 22.6974 160.229 24.8451V40.0442C160.229 40.5398 160.559 40.8703 160.89 40.8703H162.872C163.368 40.8703 163.533 40.5398 163.533 40.0442V24.8451C163.533 22.6974 164.359 22.2018 166.837 22.2018H167.663C169.811 22.2018 171.133 22.6974 171.133 26.0015V40.0442C171.133 40.5398 171.463 40.8703 171.794 40.8703H173.776C174.932 40.8703 175.098 40.5398 175.098 40.0442V40.0442ZM194.262 30.4622V28.3145C194.262 22.8626 191.288 19.228 185.671 19.228C180.054 19.228 176.915 22.6974 176.915 28.3145V31.7838C176.915 39.053 181.21 41.2007 185.836 41.2007C188.48 41.2007 190.627 41.0355 192.775 40.5398C193.436 40.3746 193.601 40.2094 193.601 39.7138V38.3921C193.601 38.0617 193.271 37.8965 192.94 37.8965H192.775C190.958 38.2269 188.149 38.3921 185.836 38.3921C182.202 38.3921 180.384 36.7401 180.384 32.1142V31.2882H193.436C193.931 31.2882 194.262 30.9578 194.262 30.4622V30.4622ZM190.792 28.6449H180.384V28.3145C180.384 24.1843 182.202 22.2018 185.671 22.2018C189.14 22.2018 190.792 23.8538 190.792 28.3145V28.6449ZM222.678 32.4447V20.2193C222.678 19.7236 222.347 19.3932 221.852 19.3932H220.034C219.539 19.3932 219.208 19.7236 219.208 20.2193V32.4447C219.208 36.7401 217.556 38.2269 214.417 38.2269C213.426 38.2269 212.435 38.0617 211.278 37.7313V20.2193C211.278 19.7236 210.948 19.3932 210.452 19.3932H208.47C207.974 19.3932 207.644 19.7236 207.644 20.2193V37.7313C206.487 38.0617 205.496 38.2269 204.505 38.2269C201.201 38.2269 199.714 36.7401 199.714 32.4447V20.2193C199.714 19.7236 199.383 19.3932 198.888 19.3932H197.07C196.575 19.3932 196.244 19.7236 196.244 20.2193V32.4447C196.244 39.3834 200.044 41.2007 204.174 41.2007C206.157 41.2007 207.809 40.8703 209.296 40.2094C210.948 40.8703 212.435 41.2007 214.417 41.2007C218.878 41.2007 222.678 39.3834 222.678 32.4447V32.4447ZM242.668 31.6186V28.6449C242.668 22.8626 239.694 19.228 233.912 19.228C228.129 19.228 225.156 23.0278 225.156 28.6449V31.6186C225.156 37.4009 228.129 41.0355 233.912 41.0355C239.694 41.2007 242.668 37.4009 242.668 31.6186ZM239.198 31.6186C239.198 35.5836 237.546 38.0617 233.912 38.0617C230.277 38.0617 228.625 35.5836 228.625 31.6186V28.6449C228.625 24.6799 230.277 22.2018 233.912 22.2018C237.546 22.2018 239.198 24.6799 239.198 28.6449V31.6186ZM254.893 21.5409V19.7236C254.893 19.228 254.563 19.0628 254.067 19.0628C250.763 19.0628 248.12 19.228 245.972 20.2193C245.476 20.3845 245.311 20.7149 245.311 21.0453V39.879C245.311 40.3746 245.641 40.705 245.972 40.705H247.954C248.45 40.705 248.615 40.3746 248.615 39.879V22.5322C250.102 22.2018 251.424 22.2018 254.067 22.2018C254.893 22.2018 254.893 22.0366 254.893 21.5409ZM272.405 40.3746C272.405 40.2094 272.405 40.0442 272.24 40.0442L263.484 29.6361L272.075 20.3845C272.24 20.2193 272.24 20.0541 272.24 19.8889C272.24 19.7237 272.075 19.3932 271.579 19.3932H269.101C268.771 19.3932 268.605 19.3932 268.275 19.7236L260.51 28.4797V12.4545C260.51 11.9589 260.18 11.6285 259.684 11.6285H257.867C257.371 11.6285 257.041 11.9589 257.041 12.4545V40.2094C257.041 40.705 257.371 41.0355 257.867 41.0355H259.684C260.18 41.0355 260.51 40.705 260.51 40.2094V30.9578L268.275 40.5398C268.605 40.8703 268.771 41.0355 269.101 41.0355H271.909C272.24 40.8703 272.405 40.705 272.405 40.3746Z" fill="#58585A"/>
<path d="M101.415 39.8792V15.2632C101.415 14.7676 101.085 14.4371 100.589 14.4371H96.9545C96.4589 14.4371 96.1284 14.7676 96.1284 15.2632V39.8792C96.1284 40.3748 96.4589 40.7052 96.9545 40.7052H100.589C101.085 40.54 101.415 40.2096 101.415 39.8792V39.8792ZM82.5814 40.54V14.6024C80.5989 14.6024 77.46 15.924 77.46 18.7325V36.4098C76.3035 36.575 74.6514 36.7402 73.6602 36.7402C70.356 36.7402 69.53 34.4273 69.53 31.2883V18.5673C69.3648 15.4284 65.8954 14.6024 64.4085 14.6024V31.1231C64.4085 37.0706 67.3823 40.8704 73.6602 40.8704C74.6514 40.8704 76.6339 40.54 77.46 40.3748V40.7052C78.286 45.8266 72.0081 43.8441 68.7039 43.5137C66.2258 43.5137 64.5737 45.4962 64.0781 47.8091C65.565 48.3048 70.1908 48.8004 73.495 49.1308C79.4424 49.296 82.5814 45.9918 82.5814 40.54V40.54ZM91.9982 39.8792V15.2632C91.9982 14.7676 91.6678 14.4371 91.1722 14.4371H87.5376C87.042 14.4371 86.7116 14.7676 86.7116 15.2632V39.8792C86.7116 40.3748 87.042 40.7052 87.5376 40.7052H91.1722C91.6678 40.54 91.9982 40.2096 91.9982 39.8792V39.8792ZM89.3549 7.49841C90.8418 7.49841 91.9982 8.65487 91.9982 10.1417C91.9982 11.6286 90.8418 12.7851 89.3549 12.7851C87.8681 12.7851 86.7116 11.6286 86.7116 10.1417C86.7116 8.82008 87.8681 7.49841 89.3549 7.49841ZM98.937 7.49841C100.424 7.49841 101.58 8.65487 101.58 10.1417C101.58 11.6286 100.424 12.7851 98.937 12.7851C97.4501 12.7851 96.2937 11.6286 96.2937 10.1417C96.2937 8.82008 97.4501 7.49841 98.937 7.49841Z" fill="#1D82C5"/>
<path fill-rule="evenodd" clip-rule="evenodd" d="M33.1431 15.6705C30.5627 8.22257 38.105 0.238189 44.3095 3.73125e-05C48.0272 1.93951 51.2193 7.03264 51.0597 13.9441C50.5725 22.459 44.5477 29.7975 37.9906 36.5585C37.6254 28.3142 35.8756 23.059 33.1431 15.6705Z" fill="#7CC734"/>
<path fill-rule="evenodd" clip-rule="evenodd" d="M18.5155 56.0004C17.4768 47.6868 20.8519 40.5949 24.2019 36.2705C25.7938 34.24 27.0179 32.3874 27.9488 30.681C29.7087 31.4431 34.4391 33.9249 37.0454 37.9543C36.6669 43.7995 32.3475 54.4369 18.5147 56.0004" fill="#3E7FCA"/>
<path fill-rule="evenodd" clip-rule="evenodd" d="M13.2881 24.4242C2.27877 21.3449 -0.436988 11.6726 0.0543573 5.16895C10.7453 0.83542 22.251 5.27424 28.8942 14.5262C33.5519 21.0107 36.4682 29.3243 37.0598 36.58C33.8644 32.3626 29.8284 29.9192 24.6876 28.0057C21.1713 26.6979 17.9233 25.8314 13.2881 24.4242" fill="#EB6E2E"/>
</svg>
